<svg width="14" height="16" viewBox="0 0 14 16" fill="none" xmlns="http://www.w3.org/2000/svg">
<path d="M6.02406 0.0535087C3.3652 0.350326 0.715715 2.50147 0.606361 5.57431C0.537625 7.4505 1.07033 8.85804 2.85592 9.25327C3.63077 7.88635 2.60597 7.58485 2.44663 6.59598C1.79207 2.54365 7.12072 -0.219876 9.90924 2.60926C11.8386 4.56825 10.5685 10.5952 7.45659 9.96876C4.47592 9.37044 8.91568 4.57294 6.53646 3.63093C4.60246 2.86546 3.57453 5.97266 4.49154 7.51611C3.95415 10.1703 2.79656 12.6714 3.26522 16.0004C4.78524 14.8975 5.29764 12.7854 5.71787 10.5827C6.48178 11.0467 6.88951 11.5294 7.86432 11.6044C11.4589 11.8824 13.4664 8.01602 12.9758 4.44952C12.54 1.28764 9.38434 -0.321418 6.02406 0.0535087Z" fill="white"/>
</svg>
