<svg width="16" height="12" viewBox="0 0 16 12" fill="none" xmlns="http://www.w3.org/2000/svg">
<path d="M8.3538 11.5026L5.07647 11.4427C4.01534 11.4218 2.95158 11.4635 1.91126 11.2472C0.328691 10.924 0.216577 9.33932 0.0992606 8.01008C-0.0623891 6.14132 0.000190341 4.23865 0.305244 2.3855C0.477457 1.34568 1.15518 0.725219 2.20327 0.657701C5.74131 0.412667 9.30289 0.441706 12.8331 0.556023C13.2059 0.566503 13.5813 0.623781 13.949 0.68898C15.7637 1.00697 15.8079 2.80277 15.9256 4.31449C16.0429 5.84181 15.9933 7.37697 15.7691 8.8939C15.5892 10.1499 15.245 11.2031 13.7925 11.3048C11.9726 11.4378 10.1944 11.5448 8.3694 11.5107C8.36948 11.5026 8.359 11.5026 8.3538 11.5026ZM6.42704 8.32287C7.79851 7.53569 9.1438 6.76163 10.5074 5.97973C9.1334 5.19255 7.79066 4.41849 6.42704 3.63659V8.32287Z" fill="white"/>
</svg>
